<svg width="52" height="52" viewBox="0 0 52 52" fill="none" xmlns="http://www.w3.org/2000/svg">
<path d="M23.0867 48.7298V3.2749C23.0867 1.66407 24.3933 0.357422 26.0042 0.357422C27.615 0.357422 28.9216 1.66407 28.9216 3.2749V48.7298C28.9214 50.3405 27.6149 51.6473 26.0042 51.6473C24.3934 51.6473 23.0869 50.3405 23.0867 48.7298Z" fill="#333333"/>
<path d="M48.7296 23.082L49.3155 23.1431C50.6452 23.4146 51.6471 24.5896 51.6471 25.9995C51.6471 27.4094 50.6452 28.5845 49.3155 28.856L48.7296 28.917H3.27466C1.66383 28.917 0.357178 27.6103 0.357178 25.9995C0.357178 24.3887 1.66383 23.082 3.27466 23.082H48.7296Z" fill="#333333"/>
</svg>
