<svg width="51" height="50" viewBox="0 0 51 50" fill="none" xmlns="http://www.w3.org/2000/svg">
<g clip-path="url(#clip0_351_8822)">
<path d="M23.4536 8.18545C31.75 8.18545 38.504 14.9395 38.504 23.2359C38.504 31.5322 31.75 38.2863 23.4536 38.2863C15.1573 38.2863 8.40323 31.5322 8.40323 23.2359C8.40323 14.9395 15.1573 8.18545 23.4536 8.18545ZM23.4536 3.71973C12.6774 3.71973 3.9375 12.4596 3.9375 23.2359C3.9375 34.0121 12.6774 42.752 23.4536 42.752C34.2298 42.752 42.9698 34.0121 42.9698 23.2359C42.9698 12.4596 34.2298 3.71973 23.4536 3.71973Z" fill="#333333"/>
<path d="M35.8631 34.4496C36.5954 33.7173 37.7833 33.7173 38.5155 34.4496L46.7811 42.7162C47.5133 43.4484 47.5133 44.6353 46.7811 45.3675C46.0489 46.0998 44.862 46.0998 44.1297 45.3675L35.8631 37.1019C35.1309 36.3697 35.1309 35.1818 35.8631 34.4496Z" fill="#333333"/>
</g>
<defs>
<clipPath id="clip0_351_8822">
<rect width="43.75" height="42.5605" fill="white" transform="translate(3.9375 3.71973)"/>
</clipPath>
</defs>
</svg>
