<svg width="50" height="50" viewBox="0 0 50 50" fill="none" xmlns="http://www.w3.org/2000/svg">
<g clip-path="url(#clip0_351_8734)">
<path d="M30.0859 12.0384V10.3099C30.0856 9.12407 29.1233 8.16146 27.9374 8.16146H22.065C20.8794 8.16175 19.9169 9.12424 19.9166 10.3099V11.9798C19.9166 12.9003 19.1704 13.6465 18.2499 13.6465C17.3295 13.6465 16.5833 12.9003 16.5833 11.9798V10.3099C16.5835 7.28329 19.0384 4.82841 22.065 4.82812H27.9374C30.9643 4.82812 33.4189 7.28312 33.4192 10.3099V12.0384C33.4192 12.9589 32.673 13.7051 31.7525 13.7051C30.8326 13.7044 30.0859 12.9585 30.0859 12.0384Z" fill="#333333"/>
<path d="M47.0125 10.8799L47.3478 10.9124C48.1073 11.0679 48.6792 11.7411 48.6792 12.5465C48.6792 13.352 48.1073 14.0252 47.3478 14.1807L47.0125 14.2132H2.97282C2.05234 14.2132 1.30615 13.467 1.30615 12.5465C1.30615 11.6261 2.05234 10.8799 2.97282 10.8799H47.0125Z" fill="#333333"/>
<path d="M18.9385 34.9056V23.737C18.9385 22.8165 19.6847 22.0703 20.6051 22.0703C21.5256 22.0703 22.2718 22.8165 22.2718 23.737V34.9056L22.2393 35.2409C22.0842 36.0008 21.4109 36.5723 20.6051 36.5723C19.7994 36.5723 19.1261 36.0008 18.971 35.2409L18.9385 34.9056Z" fill="#333333"/>
<path d="M27.7222 34.9056V23.737C27.7222 22.8165 28.4684 22.0703 29.3888 22.0703C30.3093 22.0703 31.0555 22.8165 31.0555 23.737V34.9056L31.0229 35.2409C30.8679 36.0008 30.1946 36.5723 29.3888 36.5723C28.5831 36.5723 27.9098 36.0008 27.7547 35.2409L27.7222 34.9056Z" fill="#333333"/>
<path d="M43.3423 12.3657C44.2529 12.5002 44.883 13.3496 44.7485 14.2602L40.8618 40.5721C40.2636 44.65 36.472 47.915 32.3592 47.9158H17.6424C13.529 47.9158 9.73483 44.6505 9.13656 40.5721L5.24984 14.2602L5.23682 13.9217C5.27991 13.1481 5.85977 12.4835 6.65609 12.3657C7.45317 12.248 8.20157 12.7173 8.46598 13.4464L8.55062 13.7719L12.4341 40.0838V40.0871L12.5252 40.5395C13.0907 42.7749 15.3328 44.5825 17.6424 44.5825H32.3592C34.8223 44.5816 37.2073 42.5251 37.5643 40.0871V40.0838L41.451 13.7719L41.5324 13.4464C41.7966 12.7173 42.5453 12.2483 43.3423 12.3657Z" fill="#333333"/>
</g>
<defs>
<clipPath id="clip0_351_8734">
<rect width="47.6359" height="43.3333" fill="white" transform="translate(1.18408 4.70898)"/>
</clipPath>
</defs>
</svg>
