<svg width="51" height="50" viewBox="0 0 51 50" fill="none" xmlns="http://www.w3.org/2000/svg">
<g clip-path="url(#clip0_351_8782)">
<path d="M43.9305 18.667C43.9305 20.312 42.6252 21.7041 40.9475 21.6942V21.6976C39.6288 21.6976 37.4378 21.6892 35.6841 21.6807L35.3178 21.6401C34.487 21.4632 33.8655 20.7131 33.8696 19.817C33.8745 18.7929 34.6961 17.9653 35.704 17.9702L40.2783 17.9837V13.3126C40.2783 12.2885 41.0981 11.459 42.1061 11.459C43.1135 11.4597 43.9305 12.2889 43.9305 13.3126V18.667Z" fill="#333333"/>
<path d="M6.4375 25.0076C6.43772 14.649 14.6956 6.25901 24.8912 6.25879C30.5894 6.25879 35.6556 8.89247 39.0103 13.0135L39.6562 13.8557L39.6828 13.893L39.6861 13.8997L39.6928 13.9099C39.6978 13.9173 39.7053 13.9257 39.7128 13.9369C39.7287 13.9608 39.75 13.995 39.776 14.035C39.8277 14.1148 39.8995 14.2251 39.9824 14.3631C40.1482 14.6391 40.3679 15.0308 40.5917 15.4962C40.9667 16.2767 41.4162 17.4021 41.5571 18.6182L41.6004 19.1459L41.5771 19.518C41.4383 20.3695 40.7245 21.034 39.8426 21.0671C38.9612 21.1001 38.2022 20.4913 38.0016 19.6532L37.9516 19.2812L37.8917 18.7738C37.7902 18.245 37.5726 17.6647 37.3124 17.1232C37.1492 16.7836 36.9862 16.4975 36.8663 16.2979C36.8068 16.1988 36.7577 16.1228 36.7265 16.0746L36.6932 16.0239C34.0182 12.3469 29.7423 9.96594 24.8912 9.96594C16.7116 9.96617 10.0865 16.6972 10.0863 25.0076C10.0863 33.3183 16.7115 40.0491 24.8912 40.0494C32.0392 40.0494 38.0089 34.8995 39.3932 28.0485L39.503 27.6899C39.8369 26.897 40.6832 26.4242 41.5471 26.6042C42.4112 26.7844 43.006 27.5579 43.0053 28.4205L42.9687 28.7926C41.2431 37.3334 33.8074 43.7565 24.8912 43.7565C14.6955 43.7563 6.4375 35.3665 6.4375 25.0076Z" fill="#333333"/>
</g>
<defs>
<clipPath id="clip0_351_8782">
<rect width="37.5" height="37.5" fill="white" transform="translate(6.4375 6.25)"/>
</clipPath>
</defs>
</svg>
