<svg viewBox="1 0 50 51" xmlns="http://www.w3.org/2000/svg">
  <g clip-path="url(#clip0)">
    <path d="M43.4928 14.7525C43.4928 10.5306 40.0703 7.10813 35.8484 7.10812H14.5142C10.2924 7.10815 6.86987 10.5306 6.86984 14.7525V35.2343C6.86984 39.4562 10.2923 42.8786 14.5142 42.8787H35.8484C40.0703 42.8787 43.4928 39.4562 43.4928 35.2343V14.7525ZM46.848 35.2343C46.848 41.3092 41.9233 46.2338 35.8484 46.2339H14.5142C8.43933 46.2338 3.51465 41.3092 3.51465 35.2343V14.7525C3.51468 8.67763 8.43935 3.75296 14.5142 3.75293H35.8484C41.9233 3.75294 46.8479 8.67762 46.848 14.7525V35.2343Z" fill="#333"/>
    <path d="M23.5037 33.8367V16.16C23.5037 15.2335 24.2548 14.4824 25.1813 14.4824C26.1078 14.4824 26.8589 15.2335 26.8589 16.16V33.8367C26.8583 34.7628 26.1074 35.5143 25.1813 35.5143C24.2551 35.5143 23.5042 34.7628 23.5037 33.8367Z" fill="#333"/>
    <path d="M34.0201 23.3203L34.3586 23.3536C35.1224 23.5105 35.6977 24.1877 35.6977 24.9979C35.6977 25.8082 35.1224 26.4853 34.3586 26.6423L34.0201 26.6755H16.3434C15.4169 26.6755 14.6658 25.9244 14.6658 24.9979C14.6658 24.0714 15.4169 23.3203 16.3434 23.3203H34.0201Z" fill="#333"/>
  </g>
  <defs>
    <clipPath id="clip0">
      <rect width="43.3333" height="42.4823" fill="white" transform="translate(3.52075 3.75879)"/>
    </clipPath>
  </defs>
</svg>

