<svg width="51" height="50" viewBox="0 0 51 50" fill="none" xmlns="http://www.w3.org/2000/svg">
<g clip-path="url(#clip0_351_8767)">
<path d="M9.36677 11.42C15.2155 4.58657 24.8728 2.40184 33.0816 6.06939C33.9613 6.4626 34.3562 7.49422 33.9634 8.37408C33.5703 9.2541 32.5378 9.649 31.6578 9.25591C24.8658 6.22138 16.8664 8.02622 12.0201 13.6856L12.0211 13.6866C7.1914 19.3576 6.64624 27.5337 10.6978 33.7813L11.0894 34.3565C15.2416 40.1974 22.6655 42.8006 29.5816 40.7559H29.5826C36.7313 38.6448 41.6343 32.0755 41.6343 24.6329V22.9249C41.6343 21.9611 42.4157 21.1799 43.3795 21.1797C44.3434 21.1797 45.1256 21.9609 45.1256 22.9249V24.6329C45.1256 33.4817 39.3875 41.3066 30.9732 43.9805L30.5709 44.1036C21.9467 46.6531 12.6758 43.2189 7.77204 35.6856L7.77009 35.6836C2.87389 28.1362 3.5366 18.2664 9.36384 11.4239L9.36677 11.42Z" fill="#333333"/>
<path d="M42.145 8.54781C42.8262 7.86588 43.9318 7.86559 44.6137 8.54684C45.2953 9.22809 45.2958 10.3328 44.6147 11.0146L26.0473 29.6005C25.7201 29.928 25.2759 30.1121 24.8129 30.1123C24.3501 30.1123 23.9059 29.9288 23.5786 29.6015L18.0083 24.0312C17.3267 23.3496 17.3267 22.2441 18.0083 21.5625C18.6898 20.8809 19.7954 20.8809 20.477 21.5625L24.812 25.8974L42.145 8.54781Z" fill="#333333"/>
</g>
<defs>
<clipPath id="clip0_351_8767">
<rect width="40.625" height="40.625" fill="white" transform="translate(4.49951 4.3125)"/>
</clipPath>
</defs>
</svg>
