<svg width="71" height="50" viewBox="0 0 71 50" fill="none" xmlns="http://www.w3.org/2000/svg">
<path d="M3.90246 19.9562C5.985 17.8736 9.2005 17.6135 11.5669 19.1736L12.5282 19.9562L31.4214 38.8494L32.2041 39.8107C33.7652 42.1773 33.5044 45.3922 31.4214 47.4752C29.3385 49.5581 26.1235 49.8189 23.757 48.2578L22.7957 47.4752L3.90246 28.5819L3.11985 27.6207C1.55977 25.2542 1.81992 22.0387 3.90246 19.9562Z" fill="#333333"/>
<path d="M60.6678 1.13959C63.034 -0.421506 66.2492 -0.159646 68.3323 1.9222C70.7132 4.30375 70.7138 8.167 68.3323 10.5479L32.2811 46.5906C29.8996 48.9715 26.0363 48.9721 23.6554 46.5906C21.2748 44.209 21.274 40.3457 23.6554 37.9648L59.715 1.9222L60.6678 1.13959Z" fill="#333333"/>
</svg>
