<svg width="29" height="50" viewBox="0 0 29 50" fill="none" xmlns="http://www.w3.org/2000/svg">
<g clip-path="url(#clip0_349_8644)">
<path d="M5 10C7.76142 10 10 7.76142 10 5C10 2.23858 7.76142 0 5 0C2.23858 0 0 2.23858 0 5C0 7.76142 2.23858 10 5 10Z" fill="#333333"/>
<path d="M5 30C7.76142 30 10 27.7614 10 25C10 22.2386 7.76142 20 5 20C2.23858 20 0 22.2386 0 25C0 27.7614 2.23858 30 5 30Z" fill="#333333"/>
<path d="M5 50C7.76142 50 10 47.7614 10 45C10 42.2386 7.76142 40 5 40C2.23858 40 0 42.2386 0 45C0 47.7614 2.23858 50 5 50Z" fill="#333333"/>
<path d="M23.5029 10C26.2644 10 28.5029 7.76142 28.5029 5C28.5029 2.23858 26.2644 0 23.5029 0C20.7415 0 18.5029 2.23858 18.5029 5C18.5029 7.76142 20.7415 10 23.5029 10Z" fill="#333333"/>
<path d="M23.5029 30C26.2644 30 28.5029 27.7614 28.5029 25C28.5029 22.2386 26.2644 20 23.5029 20C20.7415 20 18.5029 22.2386 18.5029 25C18.5029 27.7614 20.7415 30 23.5029 30Z" fill="#333333"/>
<path d="M23.5029 50C26.2644 50 28.5029 47.7614 28.5029 45C28.5029 42.2386 26.2644 40 23.5029 40C20.7415 40 18.5029 42.2386 18.5029 45C18.5029 47.7614 20.7415 50 23.5029 50Z" fill="#333333"/>
</g>
<defs>
<clipPath id="clip0_349_8644">
<rect width="28.5" height="50" fill="white"/>
</clipPath>
</defs>
</svg>
