<svg width="22" height="23" viewBox="0 0 22 23" fill="none" xmlns="http://www.w3.org/2000/svg">
<path d="M4.99705 0.67551C10.4285 6.08815 15.8862 1.71546 21.3177 7.1281C15.8762 5.89434 10.405 14.4516 4.96347 13.2178C4.97234 9.03435 4.98703 4.85439 4.99589 0.670929L4.99705 0.67551Z" fill="#F83F83"/>
<path d="M3.80762 0C4.54556 -3.23739e-08 5.14453 0.575387 5.14453 1.28516V19.125C6.74744 19.3143 7.90991 19.8764 7.91016 20.54C7.91016 21.3592 6.13937 22.0234 3.95508 22.0234C1.77076 22.0234 0 21.3592 0 20.54C0.000231038 19.9177 1.02259 19.386 2.47168 19.166V1.28516C2.47168 0.575541 3.06989 0.000248274 3.80762 0Z" fill="#3C3C3C"/>
</svg>
