<svg width="19" height="20" viewBox="0 0 19 20" fill="none" xmlns="http://www.w3.org/2000/svg">
<path d="M11.5801 9.75977C11.5801 8.57036 10.6162 7.60648 9.42676 7.60645C8.23733 7.60645 7.27344 8.57034 7.27344 9.75977C7.27347 10.9492 8.23735 11.9131 9.42676 11.9131C10.6161 11.9131 11.58 10.9491 11.5801 9.75977ZM13.3799 9.75977C13.3799 11.9433 11.6103 13.7129 9.42676 13.7129C7.24324 13.7129 5.47269 11.9433 5.47266 9.75977C5.47266 7.57622 7.24322 5.80566 9.42676 5.80566C11.6103 5.8057 13.3799 7.57625 13.3799 9.75977Z" fill="#333333"/>
<path d="M10.57 0C11.6622 0 12.8995 0.662842 13.2565 1.82812L13.4382 2.41992C13.554 2.48214 13.6697 2.54756 13.7849 2.61621L14.3825 2.47852L14.6052 2.43945C15.715 2.29774 16.7988 2.9977 17.3112 3.88965L18.4548 5.87109H18.4538C19.0045 6.81847 19.0431 8.2225 18.2136 9.11133L18.2126 9.11035L17.7966 9.55859C17.7992 9.62443 17.8034 9.69176 17.8034 9.75977C17.8034 9.82736 17.7991 9.89449 17.7966 9.95996L18.2155 10.4111V10.4121L18.36 10.584C19.0319 11.4739 18.965 12.7578 18.4558 13.6465L18.4548 13.6494L17.3112 15.6299C16.7647 16.5814 15.5677 17.3151 14.3825 17.041V17.04L13.7858 16.9023C13.6702 16.9713 13.5544 17.0372 13.4382 17.0996L13.2565 17.6914C12.8996 18.8569 11.6623 19.5195 10.57 19.5195H8.28388C7.19125 19.5195 5.9529 18.8566 5.59638 17.6904V17.6895L5.41473 17.0996C5.29853 17.0372 5.18265 16.9713 5.06708 16.9023L4.4704 17.041C3.28539 17.3149 2.08914 16.5813 1.54266 15.6299L0.39911 13.6494L0.400086 13.6484C-0.150424 12.7011 -0.18896 11.298 0.640321 10.4092L1.05634 9.95996C1.05377 9.8945 1.05048 9.82735 1.05048 9.75977C1.05048 9.69177 1.05374 9.62442 1.05634 9.55859L0.638367 9.1084H0.637391C-0.1855 8.21877 -0.145173 6.82081 0.398133 5.87305L0.39911 5.87109L1.54266 3.88965C2.08921 2.93838 3.28554 2.20476 4.4704 2.47852L5.06806 2.61621C5.18325 2.54755 5.29892 2.48214 5.41473 2.41992L5.59638 1.8291L5.67352 1.61719C6.10711 0.583239 7.2594 0 8.28388 0H10.57ZM8.28388 1.80078C7.77229 1.80078 7.3872 2.12995 7.31806 2.35547V2.35645L7.02509 3.30957C6.9614 3.51702 6.82535 3.69334 6.64325 3.80762L6.56317 3.85254C6.26217 4.00098 5.98447 4.15407 5.73114 4.32422C5.52467 4.46282 5.27036 4.50986 5.02802 4.4541L4.0661 4.23242H4.06513C3.83279 4.1788 3.35493 4.34811 3.10321 4.78711L3.10224 4.78906L1.95868 6.77051C1.70609 7.21319 1.79838 7.71027 1.95868 7.88477L2.63641 8.61621C2.8066 8.79975 2.89244 9.0463 2.87372 9.2959C2.86002 9.47855 2.85029 9.62201 2.85028 9.75977C2.85028 9.8977 2.86 10.0416 2.87372 10.2246L2.87665 10.3174C2.87137 10.5035 2.80778 10.6832 2.69598 10.832L2.63641 10.9033L1.95868 11.6348L1.95673 11.6367C1.81486 11.7887 1.72642 12.1905 1.87665 12.5801L1.95673 12.7461L1.95868 12.749L3.10224 14.7305L3.10321 14.7324L3.2077 14.8848C3.47101 15.2105 3.86189 15.3341 4.06513 15.2871H4.0661L5.02802 15.0654L5.11884 15.0498C5.33283 15.0232 5.55038 15.074 5.73114 15.1953L5.92645 15.3203C5.99266 15.3609 6.0604 15.4005 6.12958 15.4395L6.56317 15.667L6.64325 15.7119C6.82533 15.8261 6.96133 16.0026 7.02509 16.21L7.31806 17.1631V17.1641L7.35809 17.2529C7.48488 17.4672 7.83606 17.7197 8.28388 17.7197H10.57C11.0818 17.7197 11.4669 17.3896 11.5358 17.1641V17.1631L11.8288 16.21L11.86 16.123C11.9439 15.9254 12.0963 15.7629 12.2907 15.667L12.7243 15.4395C12.8628 15.3614 12.9952 15.2803 13.1218 15.1953L13.2018 15.1475C13.3922 15.0464 13.6138 15.0166 13.8259 15.0654L14.7878 15.2871H14.7888L14.8864 15.2969C15.137 15.2944 15.5305 15.1166 15.7507 14.7324L15.7517 14.7305L16.8952 12.749C17.1479 12.3058 17.0549 11.8075 16.8942 11.6338V11.6328L16.2175 10.9033C16.0473 10.7198 15.9605 10.4741 15.9792 10.2246C15.9929 10.0416 16.0036 9.8977 16.0036 9.75977C16.0036 9.622 15.9929 9.47858 15.9792 9.2959C15.9605 9.0463 16.0473 8.79975 16.2175 8.61621L16.8952 7.88477L16.8972 7.88281L16.9538 7.80273C17.0765 7.58477 17.1193 7.15528 16.8972 6.77441L16.8952 6.77051L15.7517 4.78906L15.7507 4.78711C15.499 4.34816 15.0212 4.17892 14.7888 4.23242H14.7878L13.8259 4.4541C13.5834 4.50994 13.3283 4.46294 13.1218 4.32422C12.8685 4.15417 12.5916 4.00091 12.2907 3.85254C12.0962 3.75661 11.9438 3.59431 11.86 3.39648L11.8288 3.30957L11.5358 2.35645V2.35547C11.4667 2.12994 11.0816 1.80078 10.57 1.80078H8.28388Z" fill="#333333"/>
</svg>
