<svg width="24" height="24" viewBox="0 0 24 24" fill="none" xmlns="http://www.w3.org/2000/svg">
<path fill-rule="evenodd" clip-rule="evenodd" d="M12 2C13.1046 2 14 2.89543 14 4V4.00911C14 5.11368 13.1046 6.00911 12 6.00911C10.8954 6.00911 10 5.11368 10 4.00911V4C10 2.89543 10.8954 2 12 2Z" fill="#333333"/>
<path fill-rule="evenodd" clip-rule="evenodd" d="M12 10.0088C13.1046 10.0088 14 10.9042 14 12.0088V12.0179C14 13.1225 13.1046 14.0179 12 14.0179C10.8954 14.0179 10 13.1225 10 12.0179V12.0088C10 10.9042 10.8954 10.0088 12 10.0088Z" fill="#333333"/>
<path fill-rule="evenodd" clip-rule="evenodd" d="M12 18.0186C13.1046 18.0186 14 18.914 14 20.0186V20.0277C14 21.1322 13.1046 22.0277 12 22.0277C10.8954 22.0277 10 21.1322 10 20.0277V20.0186C10 18.914 10.8954 18.0186 12 18.0186Z" fill="#333333"/>
</svg>
