<svg width="24" height="25" viewBox="0 0 24 25" fill="none" xmlns="http://www.w3.org/2000/svg">
<g clip-path="url(#clip0_1_1807)">
<path d="M12.008 3.2459C13.0029 1.88981 14.9046 1.5965 16.2609 2.58477L16.2619 2.58575L18.4582 4.19219L18.5822 4.2879C19.8329 5.30039 20.0846 7.13337 19.1193 8.44903L17.5275 10.6287C17.2808 10.9667 16.807 11.0413 16.4689 10.7947C16.1309 10.5479 16.0571 10.0732 16.3039 9.73516L17.8967 7.55352L17.8976 7.55254C18.3965 6.87258 18.2461 5.91387 17.5656 5.41778L17.5637 5.4168L15.3683 3.80938C14.6865 3.31267 13.731 3.46036 13.2307 4.14239L11.6389 6.32208C11.392 6.66015 10.9174 6.73393 10.5793 6.48711C10.2416 6.24024 10.1676 5.76645 10.4142 5.42852L12.007 3.24688L12.008 3.2459Z" fill="#333333"/>
<path d="M10.3208 5.54122C10.578 5.25757 11.0128 5.20822 11.3286 5.43868L17.2232 9.7463C17.3859 9.86527 17.4944 10.0441 17.5249 10.2434C17.5554 10.4425 17.5059 10.6457 17.3863 10.8078L11.4351 18.8684C11.1866 19.205 10.7122 19.2768 10.3755 19.0285C10.0388 18.7799 9.96681 18.3047 10.2154 17.968L15.7134 10.5197L11.0435 7.10762L5.54154 14.5666C5.29303 14.9034 4.81782 14.9753 4.48099 14.7268C4.14418 14.4782 4.07233 14.003 4.32083 13.6662L10.272 5.60079L10.3208 5.54122Z" fill="#333333"/>
<path d="M4.91237 13.3587C5.33081 13.3479 5.67892 13.6785 5.68971 14.0969L5.81276 18.9133L10.6389 17.6838C11.0445 17.5805 11.4573 17.8252 11.5608 18.2307C11.6642 18.6363 11.4186 19.0492 11.013 19.1526L5.26783 20.6174C5.04453 20.6744 4.80713 20.6265 4.6233 20.4876C4.43951 20.3485 4.32855 20.133 4.32252 19.9026L4.17408 14.136C4.16331 13.7176 4.49393 13.3694 4.91237 13.3587Z" fill="#333333"/>
<path d="M19.624 22.4844C20.0426 22.4844 20.3818 22.8236 20.3818 23.2422C20.3818 23.6608 20.0426 24 19.624 24H4.75781C4.33923 24 4 23.6608 4 23.2422C4 22.8236 4.33923 22.4844 4.75781 22.4844H19.624Z" fill="#333333"/>
</g>
<defs>
<clipPath id="clip0_1_1807">
<rect width="16.3822" height="22" fill="white" transform="translate(4 2)"/>
</clipPath>
</defs>
</svg>
