<svg width="95" height="98" viewBox="0 0 95 98" fill="none" xmlns="http://www.w3.org/2000/svg">
<g clip-path="url(#clip0_17119_47055)">
<path d="M79.3165 42.2559L80.0927 44.7698C80.2449 45.2592 80.5797 45.6541 81.016 45.8544L82.7864 46.6552C83.0654 46.7832 83.0705 47.2114 82.7966 47.3449L81.0363 48.207C80.6304 48.4072 80.3159 48.7743 80.1637 49.2359L79.3317 51.7554C79.2201 52.0835 78.794 52.0835 78.6875 51.7554L77.8555 49.2359C77.7033 48.7798 77.3888 48.4072 76.983 48.207L75.2075 47.3393C74.9335 47.2059 74.9386 46.7832 75.2075 46.6497L76.9018 45.8432C77.3077 45.6486 77.6272 45.2815 77.7845 44.8254L78.6672 42.2448C78.7788 41.9111 79.21 41.9222 79.3115 42.2559H79.3165Z" fill="#C4C4C4"/>
</g>
<circle cx="92" cy="34" r="3" fill="#C4C4C4"/>
<path d="M3.63672 22.6406L11.3628 30.3667" stroke="#C4C4C4" stroke-width="2.4" stroke-linecap="round" stroke-linejoin="round"/>
<path d="M11.3628 22.6406L3.63672 30.3667" stroke="#C4C4C4" stroke-width="2.4" stroke-linecap="round" stroke-linejoin="round"/>
<g filter="url(#filter0_d_17119_47055)">
<path d="M67.7556 59.1854L47.387 47.1341C45.9083 46.2574 44.0864 46.2574 42.6025 47.1341L22.2444 59.1854C21.109 59.8564 20.3116 60.9657 20 62.2374C20.3116 63.5091 21.109 64.6185 22.2444 65.2895L42.613 77.3408C44.0917 78.2175 45.9136 78.2175 47.3976 77.3408L67.7662 65.2895C68.9016 64.6185 69.699 63.5091 70.0106 62.2374C69.699 60.9657 68.9016 59.8564 67.7662 59.1854H67.7556Z" fill="#ADADAD"/>
<path d="M67.7556 45.9432L47.387 33.8919C45.9083 33.0152 44.0864 33.0152 42.6025 33.8919L22.2444 45.9432C21.109 46.6142 20.3116 47.7236 20 48.9952C20.3116 50.2669 21.109 51.3763 22.2444 52.0473L42.613 64.0986C44.0917 64.9753 45.9136 64.9753 47.3976 64.0986L67.7662 52.0473C68.9016 51.3763 69.699 50.2669 70.0106 48.9952C69.699 47.7236 68.9016 46.6142 67.7662 45.9432H67.7556Z" fill="#C3C3C3"/>
<path d="M67.7556 32.7088L47.3923 20.6575C45.9136 19.7808 44.0917 19.7808 42.6077 20.6575L22.2444 32.7088C21.109 33.3798 20.3116 34.4892 20 35.7609C20.3116 37.0326 21.109 38.1419 22.2444 38.8129L42.613 50.8642C44.0917 51.7409 45.9136 51.7409 47.3976 50.8642L67.7662 38.8129C68.9016 38.1419 69.699 37.0326 70.0106 35.7609C69.699 34.4892 68.9016 33.3798 67.7662 32.7088H67.7556Z" fill="#D4D4D4"/>
</g>
<defs>
<filter id="filter0_d_17119_47055" x="0" y="0" width="90.0105" height="98" filterUnits="userSpaceOnUse" color-interpolation-filters="sRGB">
<feFlood flood-opacity="0" result="BackgroundImageFix"/>
<feColorMatrix in="SourceAlpha" type="matrix" values="0 0 0 0 0 0 0 0 0 0 0 0 0 0 0 0 0 0 127 0" result="hardAlpha"/>
<feOffset/>
<feGaussianBlur stdDeviation="10"/>
<feComposite in2="hardAlpha" operator="out"/>
<feColorMatrix type="matrix" values="0 0 0 0 1 0 0 0 0 1 0 0 0 0 1 0 0 0 1 0"/>
<feBlend mode="normal" in2="BackgroundImageFix" result="effect1_dropShadow_17119_47055"/>
<feBlend mode="normal" in="SourceGraphic" in2="effect1_dropShadow_17119_47055" result="shape"/>
</filter>
<clipPath id="clip0_17119_47055">
<rect width="8" height="10" fill="white" transform="translate(75 42)"/>
</clipPath>
</defs>
</svg>
