<svg width="48" height="50" viewBox="0 0 48 50" fill="none" xmlns="http://www.w3.org/2000/svg">
<g clip-path="url(#clip0_354_8494)">
<path d="M47.9167 25.0591C47.9167 24.5408 47.6553 24.056 47.2142 23.7719L41.7412 20.3282L47.2142 16.9012C47.6553 16.6338 47.9167 16.149 47.9167 15.6141C47.9167 15.0958 47.6553 14.611 47.2142 14.3269L24.7343 0.217865C24.2606 -0.0830382 23.6724 -0.0830382 23.1987 0.217865L0.702495 14.3436C0.261393 14.6278 0 15.1126 0 15.6308C0 16.149 0.261393 16.6338 0.702495 16.918L6.17542 20.3616L0.702495 23.7886C0.261393 24.056 0 24.5408 0 25.0591C0 25.5773 0.261393 26.0621 0.702495 26.3463L6.06106 29.723L0.702495 33.0831C0.261393 33.3506 0 33.8354 0 34.3703C0 34.9053 0.261393 35.3733 0.702495 35.6575L23.1333 49.7832C23.362 49.9337 23.6398 50.0005 23.9012 50.0005C24.1625 50.0005 24.4403 49.9337 24.669 49.7832L47.1978 35.6575C47.6389 35.39 47.9003 34.9053 47.9003 34.3703C47.9003 33.8521 47.6389 33.3673 47.1978 33.0831L41.8229 29.7063L47.1978 26.3463C47.6389 26.0788 47.9003 25.594 47.9003 25.0591H47.9167ZM23.9665 3.27704L43.6364 15.6308L23.9175 27.9845L4.28032 15.6308L23.9665 3.27704ZM43.6364 34.3703L23.9175 46.7241L4.28032 34.3703L8.87104 31.495L23.1496 40.4887C23.3784 40.6391 23.6561 40.706 23.9175 40.706C24.1789 40.706 24.4566 40.6391 24.6853 40.4887L39.0456 31.495L43.6364 34.387V34.3703ZM23.9175 37.4295L4.28032 25.0591L8.96906 22.1169L23.1333 31.027C23.362 31.1774 23.6398 31.2443 23.9012 31.2443C24.1625 31.2443 24.4403 31.1774 24.669 31.027L38.9149 22.1002L43.62 25.0591L23.9012 37.4128L23.9175 37.4295Z" fill="#333333"/>
</g>
<defs>
<clipPath id="clip0_354_8494">
<rect width="47.9167" height="50" fill="white"/>
</clipPath>
</defs>
</svg>
