<svg width="32" height="50" viewBox="0 0 32 50" fill="none" xmlns="http://www.w3.org/2000/svg">
<g clip-path="url(#clip0_4838_41514)">
<g clip-path="url(#clip1_4838_41514)">
<path fill-rule="evenodd" clip-rule="evenodd" d="M15.0556 1.22592C23.8676 0.749257 31.1783 7.80918 31.1783 16.5899C31.1783 16.6804 31.1692 16.7688 31.152 16.8542C31.0997 19.9859 30.1198 22.8906 28.4648 25.2932C26.3586 28.3641 24.8709 31.8039 24.1846 35.4369L24.0896 35.9747C23.9787 36.6023 23.4386 37.0593 22.8077 37.0593H8.95984C8.33089 37.0593 7.79184 36.605 7.67891 35.9798L7.58375 35.4528L7.58315 35.4496C6.90007 31.7734 5.32337 28.3154 3.20801 25.1444L3.20642 25.142C1.53653 22.627 0.559842 19.5758 0.625689 16.2969M28.5719 16.3485C28.4396 9.19131 22.4377 3.4624 15.1956 3.8537C8.64915 4.21661 3.36015 9.74265 3.22933 16.3495C3.17486 19.0584 3.97998 21.5834 5.3681 23.6746C7.53522 26.9234 9.22651 30.53 10.037 34.4277H21.7291C22.5283 30.5982 24.1264 26.9985 26.3255 23.7927L26.327 23.7905C27.7319 21.7512 28.55 19.2728 28.55 16.5899C28.55 16.5074 28.5575 16.4268 28.5719 16.3485ZM15.0556 1.22592L15.0539 1.22601ZM15.0539 1.22601C7.15088 1.6636 0.784073 8.30861 0.625689 16.2969Z" fill="#333333"/>
<path fill-rule="evenodd" clip-rule="evenodd" d="M9.27277 37.0593C8.89146 37.0593 8.60002 37.3598 8.60002 37.7316C8.60002 38.1034 8.89146 38.4039 9.27277 38.4039H22.5306C22.9119 38.4039 23.2034 38.1034 23.2034 37.7316C23.2034 37.3598 22.9119 37.0593 22.5306 37.0593H9.27277ZM5.99585 37.7316C5.99585 35.8971 7.46249 34.4277 9.27277 34.4277H22.5306C24.3409 34.4277 25.8075 35.8971 25.8075 37.7316C25.8075 39.5661 24.3409 41.0355 22.5306 41.0355H9.27277C7.46249 41.0355 5.99585 39.5661 5.99585 37.7316Z" fill="#333333"/>
<path fill-rule="evenodd" clip-rule="evenodd" d="M9.27277 41.0359C8.89146 41.0359 8.60002 41.3364 8.60002 41.7082C8.60002 42.08 8.89146 42.3805 9.27277 42.3805H22.5306C22.9119 42.3805 23.2034 42.08 23.2034 41.7082C23.2034 41.3364 22.9119 41.0359 22.5306 41.0359H9.27277ZM5.99585 41.7082C5.99585 39.8737 7.46249 38.4043 9.27277 38.4043H22.5306C24.3409 38.4043 25.8075 39.8737 25.8075 41.7082C25.8075 43.5427 24.3409 45.0121 22.5306 45.0121H9.27277C7.46249 45.0121 5.99585 43.5427 5.99585 41.7082Z" fill="#333333"/>
<path fill-rule="evenodd" clip-rule="evenodd" d="M15.7498 7.14684C15.7498 6.42015 16.3327 5.83105 17.0518 5.83105C22.0532 5.83105 26.1208 9.9189 26.1208 14.9659C26.1208 15.6926 25.5378 16.2817 24.8187 16.2817C24.0996 16.2817 23.5166 15.6926 23.5166 14.9659C23.5166 11.3816 20.6242 8.46263 17.0518 8.46263C16.3327 8.46263 15.7498 7.87354 15.7498 7.14684Z" fill="#333333"/>
<path fill-rule="evenodd" clip-rule="evenodd" d="M10.8624 42.3804C11.5815 42.3804 12.1645 42.9695 12.1645 43.6962C12.1645 45.7651 13.8407 47.4597 15.9078 47.4597C17.977 47.4597 19.6512 45.7752 19.6512 43.6962C19.6512 42.9695 20.2342 42.3804 20.9533 42.3804C21.6724 42.3804 22.2554 42.9695 22.2554 43.6962C22.2554 47.242 19.4019 50.0913 15.9078 50.0913C12.4117 50.0913 9.5603 47.2278 9.5603 43.6962C9.5603 42.9695 10.1433 42.3804 10.8624 42.3804Z" fill="#333333"/>
</g>
</g>
<defs>
<clipPath id="clip0_4838_41514">
<rect width="31.25" height="50" fill="white"/>
</clipPath>
<clipPath id="clip1_4838_41514">
<rect width="31.25" height="50" fill="white"/>
</clipPath>
</defs>
</svg>
