<svg width="18" height="16" viewBox="0 0 18 16" fill="none" xmlns="http://www.w3.org/2000/svg">
<path d="M6.5459 3C7.07063 3 7.49998 3.38584 7.5 3.85742C7.5 4.32902 7.07064 4.71484 6.5459 4.71484H5.55762C3.54211 4.71484 1.9082 6.18376 1.9082 7.99512C1.90849 9.80626 3.54229 11.2744 5.55762 11.2744H6.5459V11.2852C7.07064 11.2852 7.5 11.671 7.5 12.1426C7.49998 12.6142 7.07063 13 6.5459 13H5.55762C2.49262 13 0 10.7594 0 8.00488C0.00028821 5.25055 2.4928 3.01072 5.55762 3H6.5459ZM12.998 3C15.7458 3 18 5.24249 18 8C18 10.7575 15.7565 13 12.998 13H11.3584C10.8863 12.9998 10.5 12.6136 10.5 12.1416C10.5 11.6696 10.8863 11.2834 11.3584 11.2832H12.998C14.812 11.2832 16.2822 9.8133 16.2822 8C16.2822 6.1867 14.812 4.7168 12.998 4.7168H11.3584C10.8863 4.71665 10.5 4.3304 10.5 3.8584C10.5 3.38639 10.8863 3.00015 11.3584 3H12.998ZM12.0898 7C12.5904 7 13 7.45 13 8C13 8.55 12.5904 9 12.0898 9H5.91016C5.40959 9 5 8.55 5 8C5 7.45 5.40959 7 5.91016 7H12.0898Z" fill="#333333"/>
</svg>
