<svg width="52" height="50" viewBox="0 0 52 50" fill="none" xmlns="http://www.w3.org/2000/svg">
<g clip-path="url(#clip0_4838_41512)">
<path d="M43.2958 7.01028H32.7215C32.7215 7.01028 32.7496 6.92461 32.7496 6.8675C32.7496 3.08395 29.7123 0 25.9859 0C22.2596 0 19.2223 3.08395 19.2223 6.8675C19.2223 6.91034 19.2504 6.95317 19.2504 7.01028H8.67604C3.90914 7.01028 0 10.9652 0 15.8338V41.1622C0 46.0308 3.90914 50 8.70416 50H43.3099C48.1049 50 52.0141 46.0308 52.0141 41.1622V15.8338C52.0141 10.9652 48.1049 6.996 43.3099 6.996L43.2958 7.01028ZM22.0487 6.8675C22.0487 4.65448 23.8204 2.85551 26 2.85551C28.1796 2.85551 29.9513 4.65448 29.9513 6.8675C29.9513 6.91034 29.9794 6.95317 29.9794 7.01028H22.0346C22.0346 7.01028 22.0627 6.92461 22.0627 6.8675H22.0487ZM8.70416 9.86579H43.3099C46.5581 9.86579 49.2017 12.55 49.2017 15.8481V27.1131H32.5527V25.5283C32.5527 24.743 31.92 24.1005 31.1466 24.1005H30.5419V17.7756C30.5419 16.2621 29.3326 15.0485 27.8561 15.0485H24.4954C23.0049 15.0485 21.8096 16.2764 21.8096 17.7756V24.1005H21.205C20.4316 24.1005 19.7988 24.743 19.7988 25.5283V27.1131H2.81233V15.8481C2.81233 12.55 5.45592 9.86579 8.70416 9.86579ZM22.5971 29.783V26.9417H29.7263V29.783H22.5971ZM27.7296 24.1005H24.6079V17.9041H27.7296V24.1005ZM27.9405 32.6385C27.9405 33.6379 27.139 34.4375 26.1547 34.4375C25.1704 34.4375 24.3829 33.6236 24.3688 32.6385H27.9264H27.9405ZM43.2958 47.1445H8.70416C5.45592 47.1445 2.81233 44.4603 2.81233 41.1622V29.9686H19.7847V31.225C19.7847 32.0103 20.4175 32.6528 21.1909 32.6528H21.5706C21.5706 35.2227 23.6376 37.3073 26.1687 37.3073C28.6998 37.3073 30.7528 35.2227 30.7669 32.6528H31.1466C31.92 32.6528 32.5527 32.0103 32.5527 31.225V29.9686H49.2017V41.1622C49.2017 44.4603 46.5581 47.1445 43.3099 47.1445H43.2958Z" fill="#333333"/>
</g>
<defs>
<clipPath id="clip0_4838_41512">
<rect width="52" height="50" fill="white"/>
</clipPath>
</defs>
</svg>
