<svg width="54" height="50" viewBox="0 0 54 50" fill="none" xmlns="http://www.w3.org/2000/svg">
<g clip-path="url(#clip0_354_8513)">
<path d="M38.0654 33.9326C41.7592 33.9328 44.8509 36.3773 45.8447 39.7031H51.0449C52.3094 39.7034 53.3328 40.713 53.333 41.96C53.333 43.2071 52.3095 44.2175 51.0449 44.2178H45.8447C44.8408 47.5435 41.7592 49.9881 38.0654 49.9883C34.3715 49.9883 31.279 47.5437 30.2852 44.2178H2.28809C1.02348 44.2175 0 43.2071 0 41.96C0.000244146 40.713 1.02363 39.7034 2.28809 39.7031H30.2852C31.2891 36.3772 34.3714 33.9326 38.0654 33.9326ZM38.0654 38.4561C36.0979 38.4561 34.501 40.0305 34.501 41.9707C34.5012 43.9107 36.0981 45.4844 38.0654 45.4844C39.9824 45.4841 41.5476 43.9799 41.6182 42.1094C41.6082 42.06 41.589 42.02 41.5889 41.9707C41.5889 41.9213 41.618 41.8814 41.6182 41.832C41.5379 39.9613 40.0327 38.4563 38.0654 38.4561ZM16.0615 17.4414C19.7554 17.4416 22.8471 19.887 23.8408 23.2129H51.0449C52.3095 23.2131 53.333 24.2226 53.333 25.4697C53.3329 26.7168 52.3095 27.7263 51.0449 27.7266H23.8408C22.837 31.0525 19.7554 33.4978 16.0615 33.498C12.3674 33.498 9.27504 31.0526 8.28125 27.7266H2.28809C1.02355 27.7263 0.00011382 26.7168 0 25.4697C0 24.2226 1.02348 23.2131 2.28809 23.2129H8.28125C9.28508 19.8868 12.3674 17.4414 16.0615 17.4414ZM16.0615 21.9551C14.094 21.9551 12.4971 23.5295 12.4971 25.4697C12.4972 27.4098 14.0941 28.9834 16.0615 28.9834C18.0287 28.9832 19.6249 27.4097 19.625 25.4697C19.625 23.5297 18.0288 21.9553 16.0615 21.9551ZM30.7275 0C34.4214 0.000172558 37.5131 2.44553 38.5068 5.77148H51.0449C52.3096 5.77165 53.333 6.78115 53.333 8.02832C53.3329 9.2754 52.3095 10.285 51.0449 10.2852H38.5068C37.503 13.6111 34.4214 16.0565 30.7275 16.0566C27.0335 16.0566 23.9411 13.6112 22.9473 10.2852H2.28906C1.02431 10.2852 0.000113309 9.2755 0 8.02832C0 6.78104 1.02424 5.77148 2.28906 5.77148H22.9473C23.9511 2.44541 27.0335 0 30.7275 0ZM30.7275 4.52344C28.76 4.52344 27.1631 6.09788 27.1631 8.03809C27.1631 9.97826 28.7601 11.5518 30.7275 11.5518C32.6948 11.5515 34.291 9.97813 34.291 8.03809C34.291 6.098 32.6949 4.52365 30.7275 4.52344Z" fill="#333333"/>
</g>
<defs>
<clipPath id="clip0_354_8513">
<rect width="53.3333" height="50" fill="white"/>
</clipPath>
</defs>
</svg>
