<svg width="70" height="50" viewBox="0 0 70 50" fill="none" xmlns="http://www.w3.org/2000/svg">
<g clip-path="url(#clip0_4838_41521)">
<path d="M68.5787 0.814957L68.2229 0.463407C67.9157 0.159795 67.5114 0 67.0748 0H41.0081C38.0975 0 35.5587 1.37424 34.1357 3.4356C32.648 1.45414 30.4812 0 28.0395 0H1.97279C1.53619 0 1.13193 0.175775 0.824691 0.463407L0.468942 0.814957C0.161704 1.11857 0 1.51806 0 1.9495V45.0623C0 45.5097 0.226386 45.9252 0.549794 46.2288C0.873202 46.5324 1.34214 46.6922 1.79491 46.6603C1.87577 46.6603 1.97279 46.6603 2.05364 46.6603H28.0395C29.9476 46.6603 31.6778 47.5871 32.4702 49.0093C32.8259 49.6484 33.4889 50.016 34.2004 50.016C34.3136 50.016 34.4106 50 34.5238 49.968C34.637 49.984 34.734 50.016 34.8472 50.016C35.5587 50.016 36.2217 49.6325 36.5775 49.0093C37.3698 47.5871 39.1162 46.6603 41.0081 46.6603H66.994C67.0748 46.6603 67.1719 46.6603 67.3336 46.6762C67.7863 46.7082 68.2229 46.5484 68.5463 46.2448C68.8697 45.9412 69.0476 45.5257 69.0476 45.0783V1.9495C69.0476 1.51806 68.8697 1.11857 68.5787 0.814957ZM36.1409 7.19079C36.1409 4.98562 38.3239 3.19591 41.0081 3.19591H65.8135V38.3988H41.0243C39.1809 38.3988 37.5153 38.9581 36.157 39.8849V8.99648C36.157 8.99648 36.157 8.88463 36.157 8.83669V7.19079H36.1409ZM28.0395 3.19591C30.6591 3.19591 32.8583 6.67945 32.9068 8.93256V39.869C31.5485 38.9581 29.8829 38.3988 28.0395 38.3988H3.23408V3.19591H28.0395ZM28.0395 43.4324H3.23408V41.5788H28.0395C30.4004 41.5788 32.3731 42.969 32.8097 44.8066C31.4514 43.9278 29.8021 43.4324 28.0395 43.4324ZM41.0081 43.4324C39.2456 43.4324 37.5962 43.9278 36.2379 44.8066C36.6745 42.969 38.6473 41.5947 41.0081 41.5947H65.7974V43.4324H40.992H41.0081Z" fill="#333333"/>
<path d="M57.1429 12.6187L57.4778 12.6535C58.2377 12.8086 58.8101 13.48 58.8101 14.2858C58.8101 15.0915 58.2377 15.763 57.4778 15.918L57.1429 15.9529H45.2382C44.3177 15.9529 43.571 15.2063 43.571 14.2858C43.571 13.3653 44.3177 12.6187 45.2382 12.6187H57.1429Z" fill="#333333"/>
</g>
<defs>
<clipPath id="clip0_4838_41521">
<rect width="69.0476" height="50" fill="white"/>
</clipPath>
</defs>
</svg>
