<svg width="50" height="50" viewBox="0 0 50 50" fill="none" xmlns="http://www.w3.org/2000/svg">
<path d="M2.10737 2.10298C3.10352 1.10683 4.6416 0.982394 5.77355 1.72863L6.23335 2.10298L47.9 43.7696L48.2744 44.2294C49.0206 45.3614 48.8962 46.8995 47.9 47.8956C46.9039 48.8918 45.3658 49.0162 44.2338 48.27L43.774 47.8956L2.10737 6.22896L1.73302 5.76916C0.986789 4.63721 1.11122 3.09913 2.10737 2.10298Z" fill="#333333"/>
<path d="M44.2342 1.72863C45.3661 0.982394 46.9042 1.10683 47.9003 2.10298C48.8965 3.09913 49.0209 4.63721 48.2747 5.76916L47.9003 6.22896L6.23367 47.8956C5.09464 49.0347 3.24672 49.0347 2.10769 47.8956C0.968661 46.7566 0.968661 44.9087 2.10769 43.7696L43.7744 2.10298L44.2342 1.72863Z" fill="#333333"/>
</svg>
